<?xml version="1.0" standalone="no"?>
<!DOCTYPE svg PUBLIC "-//W3C//DTD SVG 20010904//EN"
 "http://www.w3.org/TR/2001/REC-SVG-20010904/DTD/svg10.dtd">
<svg version="1.0" xmlns="http://www.w3.org/2000/svg"
 width="600.000000pt" height="600.000000pt" viewBox="0 0 600.000000 600.000000"
 preserveAspectRatio="xMidYMid meet">
<metadata>
Created by potrace 1.11, written by Peter Selinger 2001-2013
</metadata>
<g transform="translate(0.000000,600.000000) scale(0.100000,-0.100000)"
fill="#000000" stroke="none">
<path d="M0 3000 l0 -3000 3000 0 3000 0 0 3000 0 3000 -3000 0 -3000 0 0
-3000z m3227 1955 c5 -55 -2 -98 -22 -148 -5 -12 8 -5 31 17 21 20 77 64 123
99 86 63 144 132 159 190 l8 31 24 -55 c28 -64 38 -183 21 -247 -7 -23 -26
-58 -42 -77 -42 -47 -36 -67 21 -69 53 -2 175 -67 277 -148 86 -68 196 -188
189 -207 -2 -9 -12 -34 -20 -56 -18 -49 -20 -128 -4 -232 8 -55 13 -72 19 -58
10 25 11 22 14 -40 1 -28 7 -60 14 -70 11 -17 12 -15 7 18 -4 28 -1 37 10 37
8 0 14 -5 14 -12 0 -26 34 -86 46 -81 9 3 11 -2 7 -16 -3 -12 -1 -21 6 -21 6
0 11 -6 11 -13 0 -7 6 -19 13 -25 6 -7 12 -17 12 -22 0 -5 14 -27 30 -49 35
-47 60 -62 52 -31 -7 28 -1 25 16 -9 13 -27 13 -29 -2 -24 -9 3 1 -10 22 -29
20 -20 37 -40 37 -44 0 -5 4 -35 10 -67 5 -32 14 -133 20 -225 13 -181 28
-270 60 -351 59 -149 220 -310 349 -347 70 -21 130 -14 216 25 46 21 84 31
116 31 49 0 139 -28 175 -54 18 -14 16 -18 -43 -78 -98 -100 -131 -181 -103
-253 5 -14 47 -62 93 -106 102 -97 130 -148 135 -244 2 -38 0 -80 -5 -92 -8
-20 -10 -20 -71 26 -61 46 -137 81 -177 81 -23 0 -65 -26 -65 -40 0 -5 7 -16
15 -24 25 -25 55 -102 62 -156 6 -56 -13 -121 -48 -158 -25 -28 -36 -28 -45 1
-21 67 -113 157 -160 157 -18 0 -22 -7 -27 -55 -3 -30 -15 -72 -27 -93 -20
-36 -64 -72 -88 -72 -5 0 -12 35 -16 78 -8 99 -49 186 -110 237 -24 20 -81 49
-127 66 -45 16 -95 39 -111 50 -15 11 -33 17 -39 13 -8 -4 -9 -3 -5 4 4 7 -8
21 -28 34 -20 13 -37 30 -40 38 -2 8 -4 2 -5 -14 -1 -29 -1 -29 -23 -10 l-21
19 7 -34 c7 -40 31 -81 47 -81 7 0 9 10 6 23 -6 20 7 58 15 47 48 -66 61 -80
74 -80 8 0 12 -4 9 -10 -7 -11 56 -80 72 -80 16 0 15 -136 -2 -258 -31 -220
-85 -380 -173 -508 -56 -83 -99 -118 -173 -142 -236 -78 -487 -81 -613 -7
l-44 26 -12 82 c-13 82 -11 145 5 181 10 22 0 21 -135 -11 -113 -26 -335 -24
-464 5 -124 28 -130 28 -116 3 13 -26 13 -146 -1 -211 -9 -44 -16 -53 -52 -75
-125 -72 -354 -73 -590 -1 -72 22 -91 33 -132 74 -133 138 -206 325 -240 619
-24 205 -28 188 74 293 78 80 90 89 101 74 11 -12 11 -20 2 -35 -8 -12 -8 -19
-2 -19 15 0 59 101 65 151 3 27 2 36 -3 24 -5 -11 -14 -35 -22 -54 -12 -31
-14 -32 -26 -17 -12 17 -13 17 -31 -1 -10 -10 -31 -24 -45 -32 -15 -8 -26 -19
-25 -25 1 -6 -4 -10 -11 -8 -7 1 -26 -7 -42 -18 -15 -11 -36 -20 -47 -20 -31
0 -137 -55 -171 -89 -64 -65 -102 -163 -102 -268 0 -39 -15 -42 -53 -13 -40
32 -66 82 -73 143 -7 63 -15 67 -65 41 -42 -21 -86 -71 -109 -121 -22 -49 -29
-52 -57 -21 -36 40 -47 71 -47 135 0 51 7 74 36 135 34 67 36 74 21 90 -34 38
-127 10 -233 -71 -30 -22 -57 -41 -61 -41 -10 0 -19 40 -19 86 0 68 41 146
125 239 72 80 116 144 122 178 8 50 -32 128 -105 207 -34 36 -61 68 -62 73 -1
18 118 60 181 65 58 4 72 1 110 -21 24 -14 72 -31 105 -38 54 -11 70 -10 129
6 156 42 316 223 381 432 14 47 29 130 36 210 12 132 12 132 40 142 16 6 32
11 36 13 4 1 18 16 32 33 14 16 29 33 35 37 6 5 6 8 -2 8 -7 0 -10 7 -6 16 4
11 8 12 13 4 10 -17 48 105 55 180 4 36 13 82 21 103 15 39 20 172 6 163 -4
-2 -6 14 -4 36 3 28 1 39 -7 34 -6 -4 -11 -3 -11 3 0 5 6 11 13 14 9 3 9 9 0
28 -6 13 -15 34 -18 47 -16 56 -25 12 -25 -123 0 -148 -18 -302 -46 -387 -9
-26 -13 -58 -10 -70 3 -13 3 -17 0 -10 -3 6 -10 12 -15 12 -5 0 -9 -6 -9 -12
0 -16 -39 -61 -64 -75 -29 -16 -88 1 -211 61 -275 134 -457 384 -510 699 -6
35 -3 42 32 76 35 35 89 61 155 75 18 4 37 20 52 45 33 51 70 66 127 51 55
-15 63 -22 89 -76 48 -99 158 -190 271 -225 65 -20 129 -25 129 -10 0 18 73
136 140 226 133 178 316 307 580 410 239 93 416 213 495 335 l39 61 24 -63
c13 -35 26 -90 29 -123z m1728 -257 c79 -265 55 -539 -64 -720 -103 -158 -270
-267 -496 -322 -38 -10 -78 -22 -89 -28 -13 -7 -16 -6 -11 2 4 6 -2 21 -13 33
-71 78 -179 282 -212 398 -11 41 -23 115 -27 165 l-6 91 126 1 c289 3 499 73
634 208 58 59 123 169 123 208 0 34 20 13 35 -36z m-925 -408 c0 -5 -4 -10
-10 -10 -5 0 -10 5 -10 10 0 6 5 10 10 10 6 0 10 -4 10 -10z m7 -167 c-3 -10
-5 -4 -5 12 0 17 2 24 5 18 2 -7 2 -21 0 -30z m-20 -15 c-3 -7 -5 -2 -5 12 0
14 2 19 5 13 2 -7 2 -19 0 -25z m17 -51 c4 -19 3 -26 -4 -22 -5 3 -10 18 -10
32 0 32 5 28 14 -10z m-2087 1 c-3 -8 -6 -5 -6 6 -1 11 2 17 5 13 3 -3 4 -12
1 -19z m10 -290 c-3 -7 -5 -2 -5 12 0 14 2 19 5 13 2 -7 2 -19 0 -25z m2259
-49 c19 -22 19 -22 -3 -10 -13 6 -23 16 -23 21 0 15 5 12 26 -11z m-2295 -146
c-12 -20 -14 -14 -5 12 4 9 9 14 11 11 3 -2 0 -13 -6 -23z m-14 -45 c-3 -8 -6
-5 -6 6 -1 11 2 17 5 13 3 -3 4 -12 1 -19z m2511 -1693 c-3 -3 -9 2 -12 12 -6
14 -5 15 5 6 7 -7 10 -15 7 -18z m8 -42 c-10 -10 -19 5 -10 18 6 11 8 11 12 0
2 -7 1 -15 -2 -18z"/>
<path d="M3470 4695 c-10 -12 -10 -15 3 -15 19 0 31 16 18 24 -5 3 -14 -1 -21
-9z"/>
<path d="M2862 3733 l-73 -16 -28 -61 c-43 -96 -98 -126 -177 -96 -34 13 -51
-1 -92 -78 -58 -109 -63 -232 -13 -331 47 -92 183 -94 376 -5 89 41 150 54
247 54 100 0 100 0 141 35 51 44 82 53 116 33 20 -11 25 -21 23 -44 -2 -16 -7
-31 -10 -34 -4 -3 -13 -13 -20 -22 -12 -15 -11 -16 15 -12 24 4 26 2 12 -9
-11 -8 -15 -23 -13 -40 2 -15 6 -39 8 -54 2 -16 -1 -31 -7 -35 -7 -4 -7 -11 3
-23 21 -25 35 -12 38 36 8 126 7 124 62 133 112 18 202 208 156 330 -16 41
-19 44 -41 36 -34 -13 -69 18 -85 75 -7 25 -16 48 -20 50 -4 3 -22 -3 -40 -11
-42 -21 -78 -7 -86 36 -5 22 -14 32 -38 39 -98 33 -331 39 -454 14z m548 -617
c0 -3 -4 -8 -10 -11 -5 -3 -10 -1 -10 4 0 6 5 11 10 11 6 0 10 -2 10 -4z"/>
<path d="M3347 3253 c-12 -11 -8 -23 8 -23 8 0 15 7 15 15 0 16 -12 20 -23 8z"/>
<path d="M3597 3187 c-23 -60 -48 -77 -112 -77 -46 -1 -48 -2 -31 -15 65 -49
172 22 164 108 -3 32 -3 32 -21 -16z"/>
<path d="M3235 3153 c20 -146 24 -238 14 -352 -6 -78 -6 -128 0 -134 5 -5 9 0
9 14 1 13 5 49 11 79 13 72 13 198 0 285 -5 39 -10 77 -10 85 0 31 -10 60 -19
60 -6 0 -8 -16 -5 -37z"/>
<path d="M2440 3116 c0 -22 22 -80 38 -98 26 -31 142 -36 142 -6 0 6 -10 8
-23 4 -56 -14 -119 28 -132 87 -7 28 -25 38 -25 13z"/>
<path d="M3351 2918 c2 -30 3 -35 6 -15 2 15 8 27 13 27 5 0 7 7 4 15 -12 30
-24 14 -23 -27z"/>
<path d="M3385 2875 c0 -53 -4 -84 -10 -81 -5 2 -11 -11 -12 -28 0 -17 1 -25
4 -18 7 17 23 15 23 -3 0 -8 -4 -15 -10 -15 -5 0 -9 -6 -7 -12 1 -8 -6 -12
-18 -10 l-20 4 20 -15 c20 -15 19 -16 -8 -26 -16 -6 -36 -11 -44 -11 -9 0 -14
-3 -11 -6 3 -3 22 -2 42 1 29 6 37 13 46 41 7 19 16 34 21 34 5 0 9 7 9 15 0
8 -4 15 -10 15 -5 0 -10 5 -10 11 0 6 6 9 13 6 9 -3 10 15 3 89 -6 52 -12 94
-15 94 -3 0 -6 -38 -6 -85z"/>
<path d="M3400 2639 c0 -5 5 -7 10 -4 6 3 10 8 10 11 0 2 -4 4 -10 4 -5 0 -10
-5 -10 -11z"/>
<path d="M3353 2613 c9 -2 23 -2 30 0 6 3 -1 5 -18 5 -16 0 -22 -2 -12 -5z"/>
<path d="M4171 2044 c0 -11 3 -14 6 -6 3 7 2 16 -1 19 -3 4 -6 -2 -5 -13z"/>
<path d="M2595 1272 c21 -23 43 -38 48 -35 6 3 7 2 4 -3 -3 -5 3 -20 13 -34
l18 -23 -2 56 c-1 62 1 61 -75 72 l-45 7 39 -40z"/>
<path d="M3495 1305 c-5 -2 -27 -6 -48 -10 -30 -5 -36 -9 -28 -19 6 -7 8 -27
5 -45 -9 -41 4 -39 41 9 17 21 34 39 38 40 5 0 15 7 23 15 14 13 13 15 -3 14
-10 0 -22 -2 -28 -4z"/>
<path d="M3456 1044 c-22 -16 -26 -85 -6 -109 34 -41 91 18 74 78 -11 36 -42
50 -68 31z"/>
<path d="M3935 1018 c-13 -26 -13 -38 -4 -60 12 -29 34 -37 42 -15 3 7 6 5 6
-5 2 -30 20 -20 36 18 13 32 13 39 0 65 -22 41 -58 40 -80 -3z"/>
<path d="M2052 1020 c-22 -21 -26 -45 -13 -90 7 -27 44 -36 60 -16 17 22 22
68 9 97 -15 34 -27 36 -56 9z m5 -42 c-3 -8 -6 -5 -6 6 -1 11 2 17 5 13 3 -3
4 -12 1 -19z"/>
<path d="M2536 1015 c-33 -50 -5 -121 42 -104 43 16 52 77 16 113 -22 22 -39
20 -58 -9z"/>
<path d="M3722 1013 c-38 -15 -35 -102 4 -123 21 -12 26 -11 44 10 11 13 20
34 20 47 0 31 -18 65 -31 58 -5 -4 -9 -1 -9 4 0 12 -7 13 -28 4z"/>
<path d="M2305 986 c-21 -15 -23 -79 -3 -103 25 -31 78 -2 78 42 0 13 -6 26
-12 28 -10 4 -9 6 1 6 11 1 10 6 -4 21 -21 24 -34 25 -60 6z"/>
</g>
</svg>
